<svg version="1.1" id="Layer_1" xmlns="http://www.w3.org/2000/svg" xmlns:xlink="http://www.w3.org/1999/xlink" x="0px" y="0px"
	 width="100%" viewBox="0 0 420 416" enable-background="new 0 0 420 416" xml:space="preserve">
<path fill="#000001" opacity="1.000000" stroke="none" 
	d="
M285.000000,417.000000 
	C190.000015,417.000000 95.500023,417.000000 1.000025,417.000000 
	C1.000017,278.333374 1.000017,139.666718 1.000008,1.000063 
	C140.999954,1.000042 280.999908,1.000042 420.999908,1.000021 
	C420.999939,139.666611 420.999939,278.333221 420.999969,416.999908 
	C375.833344,417.000000 330.666656,417.000000 285.000000,417.000000 
M166.518997,337.453949 
	C166.608597,337.692444 166.776947,337.842957 167.019363,338.565918 
	C167.629944,339.411438 168.240509,340.256958 169.165466,341.736572 
	C172.432968,344.653473 175.998581,343.252563 179.458084,342.345795 
	C198.519135,337.349731 217.565094,332.296173 236.904907,327.186066 
	C236.904907,329.164307 236.667755,330.853546 236.950333,332.450836 
	C237.733124,336.875580 236.066650,338.815247 231.601898,339.914948 
	C219.213013,342.966339 206.955948,346.556519 194.661972,349.988129 
	C187.962921,351.858002 181.246536,353.688904 174.629929,355.822601 
	C170.396698,357.187653 168.426620,360.981476 169.480225,364.702698 
	C170.621826,368.734741 174.857239,371.816956 178.534424,370.772705 
	C201.716553,364.189301 224.860657,357.471954 248.531708,350.883331 
	C248.709473,350.597626 248.887253,350.311890 249.705627,349.798340 
	C250.470642,347.198883 251.235672,344.599457 252.234100,341.268524 
	C252.158371,340.512360 252.082642,339.756165 252.239594,338.087860 
	C252.252426,331.437836 252.357651,324.786377 252.252457,318.138214 
	C252.143845,311.272949 248.175842,308.304199 241.421997,309.965576 
	C236.768234,311.110413 232.163345,312.452759 227.528244,313.674988 
	C212.538330,317.627716 197.544556,321.565735 181.436722,325.802856 
	C182.048813,321.083588 182.561050,317.134155 183.817245,313.180908 
	C185.211334,312.750610 186.605423,312.320312 188.676147,311.984192 
	C189.493835,311.676666 190.311523,311.369110 191.893539,311.069763 
	C193.596680,310.580780 195.299820,310.091827 197.748520,309.572021 
	C209.597275,306.020172 221.652771,303.033081 233.247894,298.788391 
	C252.174454,291.859863 269.700989,282.329803 284.308685,267.565491 
	C284.538147,267.428925 284.649963,267.227112 285.253418,266.628845 
	C306.476929,244.956711 314.629364,219.011520 309.720703,189.221130 
	C306.504211,169.700317 298.363434,152.319199 284.451080,137.628036 
	C284.350067,137.422379 284.186584,137.339340 283.659180,136.750595 
	C281.473724,134.749939 279.288239,132.749268 276.877563,130.206635 
	C276.272369,129.749969 275.667175,129.293304 274.727417,128.265213 
	C251.726410,109.875069 225.563980,101.958687 196.426712,106.399231 
	C138.890045,115.167877 101.505966,169.328430 113.163177,226.409927 
	C116.582245,243.151947 124.115974,257.988373 135.259201,270.964630 
	C137.571732,273.657593 140.568329,275.745941 143.916336,273.912628 
	C146.222321,272.649933 148.739105,270.005432 149.177795,267.614471 
	C149.586670,265.386017 147.871719,262.277557 146.238342,260.240784 
	C130.422943,240.519104 123.785622,218.172379 127.316055,193.151230 
	C132.366394,157.358154 161.263199,127.734764 196.116928,122.050232 
	C233.438858,115.963142 269.320709,133.633118 286.150574,166.831955 
	C302.504700,199.092316 298.793579,236.142654 267.824982,261.824036 
	C253.925919,273.350098 238.150955,281.359436 221.127777,286.768555 
	C205.664368,291.682037 189.893204,295.627716 174.254074,299.987030 
	C167.752686,301.799286 166.240341,303.719757 166.244858,310.525970 
	C166.247177,314.015625 166.395355,317.505188 166.260239,321.811279 
	C166.336578,323.209351 166.412933,324.607452 166.269104,326.840729 
	C166.342987,328.558655 166.416870,330.276611 166.269501,332.855316 
	C166.425934,334.298065 166.582367,335.740814 166.518997,337.453949 
M202.076004,230.501236 
	C202.076004,239.816956 202.076004,249.132675 202.076004,258.810608 
	C195.768631,260.688171 189.643570,262.511475 183.053848,264.473083 
	C183.053848,262.044342 183.055313,260.236389 183.053604,258.428436 
	C183.037262,241.098419 183.068756,223.768158 182.974594,206.438553 
	C182.945862,201.149734 179.954742,198.045944 175.301636,197.996719 
	C170.468323,197.945587 167.623337,200.497055 167.596313,205.674408 
	C167.478882,228.169098 167.447235,250.665131 167.575623,273.159607 
	C167.611038,279.364716 171.220215,282.256104 177.284882,281.185974 
	C202.294495,276.772949 225.520065,267.062469 248.464096,256.657715 
	C250.224838,255.859238 251.953476,252.795456 251.994888,250.750122 
	C252.305069,235.429855 252.349243,220.097397 252.017410,204.778702 
	C251.970825,202.628891 249.905228,199.681244 247.944153,198.576889 
	C242.685806,195.615768 237.080765,199.754074 237.019119,206.347687 
	C236.910080,218.010727 237.014114,229.676117 236.843506,241.337814 
	C236.820892,242.883057 236.127563,245.280991 235.036545,245.802658 
	C229.552597,248.424789 223.833359,250.554886 217.690308,253.064682 
	C217.690308,240.280609 217.757889,228.130722 217.660919,215.982147 
	C217.614578,210.177063 214.734650,207.047211 209.859711,207.029068 
	C205.072159,207.011246 202.169159,210.316406 202.092056,216.004379 
	C202.031097,220.502899 202.077362,225.002869 202.076004,230.501236 
M220.000992,50.500179 
	C220.000305,44.838051 220.025879,39.175758 219.991760,33.513832 
	C219.955292,27.460276 216.142349,23.240124 210.864502,23.337927 
	C205.740021,23.432888 202.036087,27.526472 202.021851,33.286186 
	C201.985245,48.107563 201.976639,62.929176 202.020721,77.750504 
	C202.038849,83.844795 205.263733,87.036133 211.137405,87.001625 
	C216.853058,86.968040 219.961151,83.674232 219.990158,77.479240 
	C220.030716,68.819702 220.000763,60.159824 220.000992,50.500179 
M336.147400,213.985687 
	C351.454346,213.989075 366.761353,214.010452 382.068268,213.987152 
	C388.330597,213.977615 392.054382,210.496109 391.998230,204.829376 
	C391.943970,199.351318 388.327698,196.019073 382.285522,196.007675 
	C367.810486,195.980392 353.335358,195.991684 338.860260,196.002502 
	C332.748505,196.007080 329.636139,198.212585 328.601318,203.211884 
	C327.619293,207.956009 329.704315,211.289749 336.147400,213.985687 
M32.231018,198.743317 
	C29.554899,202.057053 29.092419,205.691513 31.090313,209.419159 
	C33.019161,213.017975 36.262962,214.088043 40.277302,214.052383 
	C54.923134,213.922302 69.570976,214.039749 84.217720,213.980270 
	C89.711349,213.957962 93.557350,210.271103 93.696190,205.172302 
	C93.839569,199.906464 89.871719,196.029160 84.131905,196.013657 
	C69.152145,195.973190 54.171131,195.915146 39.193527,196.100159 
	C37.056923,196.126541 34.936508,197.463608 32.231018,198.743317 
M96.443962,309.039734 
	C95.832985,313.488770 97.479462,316.784180 101.445206,318.931580 
	C105.173195,320.950195 108.719772,320.187531 111.560196,317.529053 
	C117.270317,312.184662 122.835045,306.664429 128.168335,300.944977 
	C131.879501,296.965088 131.567627,291.553040 127.983749,288.020386 
	C124.364334,284.452698 119.068413,284.355896 115.022530,288.189697 
	C109.585747,293.341461 104.341270,298.701050 99.140671,304.093353 
	C98.044106,305.230377 97.494583,306.895020 96.443962,309.039734 
M325.756744,309.773834 
	C324.584808,307.632751 323.778076,305.154510 322.171692,303.414520 
	C317.546143,298.404236 312.658447,293.629303 307.758331,288.881073 
	C303.212189,284.475800 297.845642,284.221100 294.042664,288.027740 
	C290.011078,292.063110 290.272308,297.323578 294.873230,302.030518 
	C299.410065,306.671906 304.100800,311.163300 308.620789,315.820648 
	C311.425781,318.710876 314.509308,320.858124 318.696625,319.690460 
	C323.206421,318.432831 325.422119,315.129730 325.756744,309.773834 
M112.901855,119.647545 
	C113.634789,120.296059 114.356216,120.958130 115.102547,121.590836 
	C119.488144,125.308830 124.355995,125.388191 127.999924,121.809586 
	C131.706787,118.169151 131.935791,113.108818 128.047806,108.928917 
	C122.725212,103.206703 117.222725,97.630669 111.509567,92.300423 
	C107.774803,88.816002 102.331421,89.270393 98.892921,92.752602 
	C95.413727,96.276016 95.238686,101.351089 98.844719,105.258141 
	C103.230438,110.009949 107.885521,114.513145 112.901855,119.647545 
M311.001556,117.505791 
	C314.997803,113.502632 319.118805,109.614784 322.955322,105.463989 
	C326.816772,101.286186 326.677795,96.183769 322.951477,92.598152 
	C319.265289,89.051155 313.914886,88.977684 309.942047,92.786613 
	C304.292816,98.202736 298.792725,103.779472 293.356995,109.411171 
	C290.257294,112.622627 290.530334,118.210953 293.682953,121.527817 
	C297.039368,125.059090 302.669586,125.399666 306.229614,122.217178 
	C307.717773,120.886856 309.078552,119.414032 311.001556,117.505791 
M205.752609,387.099182 
	C210.259537,386.034424 214.801971,385.098206 219.262390,383.865204 
	C222.980545,382.837372 225.542725,378.385590 224.528366,374.893890 
	C223.369568,370.904846 220.528946,368.423401 216.425247,369.140778 
	C211.076385,370.075775 205.810562,371.662689 200.634033,373.352142 
	C196.316818,374.761169 194.206665,378.607910 195.242111,382.124512 
	C196.485657,386.347870 199.998871,388.224548 205.752609,387.099182 
z"/>
<path fill="#FAFAFB" opacity="1.000000" stroke="none" 
	d="
M166.477631,320.994812 
	C166.395355,317.505188 166.247177,314.015625 166.244858,310.525970 
	C166.240341,303.719757 167.752686,301.799286 174.254074,299.987030 
	C189.893204,295.627716 205.664368,291.682037 221.127777,286.768555 
	C238.150955,281.359436 253.925919,273.350098 267.824982,261.824036 
	C298.793579,236.142654 302.504700,199.092316 286.150574,166.831955 
	C269.320709,133.633118 233.438858,115.963142 196.116928,122.050232 
	C161.263199,127.734764 132.366394,157.358154 127.316055,193.151230 
	C123.785622,218.172379 130.422943,240.519104 146.238342,260.240784 
	C147.871719,262.277557 149.586670,265.386017 149.177795,267.614471 
	C148.739105,270.005432 146.222321,272.649933 143.916336,273.912628 
	C140.568329,275.745941 137.571732,273.657593 135.259201,270.964630 
	C124.115974,257.988373 116.582245,243.151947 113.163177,226.409927 
	C101.505966,169.328430 138.890045,115.167877 196.426712,106.399231 
	C225.563980,101.958687 251.726410,109.875069 274.882141,128.900970 
	C275.725494,129.940674 276.414124,130.344650 277.102783,130.748611 
	C279.288239,132.749268 281.473724,134.749939 283.872803,137.172455 
	C284.086426,137.594299 284.457458,137.920624 284.457458,137.920624 
	C298.363434,152.319199 306.504211,169.700317 309.720703,189.221130 
	C314.629364,219.011520 306.476929,244.956711 284.813446,266.885651 
	C284.204590,267.283813 284.065460,267.450073 283.956085,267.641266 
	C269.700989,282.329803 252.174454,291.859863 233.247894,298.788391 
	C221.652771,303.033081 209.597275,306.020172 197.363647,309.257629 
	C196.222275,308.572937 195.465775,308.202606 194.709274,307.832306 
	C194.480957,309.978577 189.753464,307.136993 191.129227,311.061584 
	C190.311523,311.369110 189.493835,311.676666 188.264832,311.592102 
	C185.035721,308.912628 183.594742,309.941345 183.073288,313.184753 
	C182.561050,317.134155 182.048813,321.083588 181.436722,325.802856 
	C197.544556,321.565735 212.538330,317.627716 227.528244,313.674988 
	C232.163345,312.452759 236.768234,311.110413 241.421997,309.965576 
	C248.175842,308.304199 252.143845,311.272949 252.252457,318.138214 
	C252.357651,324.786377 252.252426,331.437836 251.789185,338.594055 
	C251.559418,340.066803 251.780045,341.033417 252.000671,342.000000 
	C251.235672,344.599457 250.470642,347.198883 249.172241,349.982819 
	C248.362656,350.309875 248.155487,350.520416 248.017319,350.798828 
	C224.860657,357.471954 201.716553,364.189301 178.534424,370.772705 
	C174.857239,371.816956 170.621826,368.734741 169.480225,364.702698 
	C168.426620,360.981476 170.396698,357.187653 174.629929,355.822601 
	C181.246536,353.688904 187.962921,351.858002 194.661972,349.988129 
	C206.955948,346.556519 219.213013,342.966339 231.601898,339.914948 
	C236.066650,338.815247 237.733124,336.875580 236.950333,332.450836 
	C236.667755,330.853546 236.904907,329.164307 236.904907,327.186066 
	C217.565094,332.296173 198.519135,337.349731 179.458084,342.345795 
	C175.998581,343.252563 172.432968,344.653473 169.297058,341.196228 
	C170.500931,337.979950 171.573227,335.303986 172.899384,331.994537 
	C170.389511,331.994537 168.440140,331.994537 166.490753,331.994537 
	C166.416870,330.276611 166.342987,328.558655 166.710297,326.412384 
	C168.228561,325.773102 169.305634,325.562195 170.557800,325.316956 
	C170.017334,330.919373 173.059509,328.705933 175.065445,328.735931 
	C175.311981,328.299164 175.558517,327.862396 175.805054,327.425629 
	C172.695908,325.282013 169.586761,323.138397 166.477631,320.994812 
M176.986923,324.506683 
	C177.651627,325.259552 178.316345,326.012421 178.981049,326.765289 
	C179.194412,326.539581 179.407761,326.313873 179.621124,326.088165 
	C178.841125,324.184235 178.061142,322.280304 177.281158,320.376373 
	C176.801147,320.492584 176.321136,320.608826 175.841125,320.725037 
	C176.152679,321.769775 176.464218,322.814514 176.986923,324.506683 
M278.200714,135.604126 
	C278.204956,135.212631 278.209229,134.821121 278.213470,134.429626 
	C278.050995,134.428116 277.747284,134.415680 277.746429,134.426666 
	C277.716309,134.816223 277.714539,135.207962 278.200714,135.604126 
M178.604279,330.799561 
	C178.212830,330.795319 177.821396,330.791077 177.429947,330.786865 
	C177.428375,330.949310 177.415894,331.252960 177.426804,331.253815 
	C177.816330,331.283936 178.208054,331.285645 178.604279,330.799561 
z"/>
<path fill="#FAFAFB" opacity="1.000000" stroke="none" 
	d="
M202.076004,230.001709 
	C202.077362,225.002869 202.031097,220.502899 202.092056,216.004379 
	C202.169159,210.316406 205.072159,207.011246 209.859711,207.029068 
	C214.734650,207.047211 217.614578,210.177063 217.660919,215.982147 
	C217.757889,228.130722 217.690308,240.280609 217.690308,253.064682 
	C223.833359,250.554886 229.552597,248.424789 235.036545,245.802658 
	C236.127563,245.280991 236.820892,242.883057 236.843506,241.337814 
	C237.014114,229.676117 236.910080,218.010727 237.019119,206.347687 
	C237.080765,199.754074 242.685806,195.615768 247.944153,198.576889 
	C249.905228,199.681244 251.970825,202.628891 252.017410,204.778702 
	C252.349243,220.097397 252.305069,235.429855 251.994888,250.750122 
	C251.953476,252.795456 250.224838,255.859238 248.464096,256.657715 
	C225.520065,267.062469 202.294495,276.772949 177.284882,281.185974 
	C171.220215,282.256104 167.611038,279.364716 167.575623,273.159607 
	C167.447235,250.665131 167.478882,228.169098 167.596313,205.674408 
	C167.623337,200.497055 170.468323,197.945587 175.301636,197.996719 
	C179.954742,198.045944 182.945862,201.149734 182.974594,206.438553 
	C183.068756,223.768158 183.037262,241.098419 183.053604,258.428436 
	C183.055313,260.236389 183.053848,262.044342 183.053848,264.473083 
	C189.643570,262.511475 195.768631,260.688171 202.076004,258.810608 
	C202.076004,249.132675 202.076004,239.816956 202.076004,230.001709 
z"/>
<path fill="#FCFCFD" opacity="1.000000" stroke="none" 
	d="
M220.000992,51.000137 
	C220.000763,60.159824 220.030716,68.819702 219.990158,77.479240 
	C219.961151,83.674232 216.853058,86.968040 211.137405,87.001625 
	C205.263733,87.036133 202.038849,83.844795 202.020721,77.750504 
	C201.976639,62.929176 201.985245,48.107563 202.021851,33.286186 
	C202.036087,27.526472 205.740021,23.432888 210.864502,23.337927 
	C216.142349,23.240124 219.955292,27.460276 219.991760,33.513832 
	C220.025879,39.175758 220.000305,44.838051 220.000992,51.000137 
z"/>
<path fill="#FDFDFD" opacity="1.000000" stroke="none" 
	d="
M335.720123,213.948349 
	C329.704315,211.289749 327.619293,207.956009 328.601318,203.211884 
	C329.636139,198.212585 332.748505,196.007080 338.860260,196.002502 
	C353.335358,195.991684 367.810486,195.980392 382.285522,196.007675 
	C388.327698,196.019073 391.943970,199.351318 391.998230,204.829376 
	C392.054382,210.496109 388.330597,213.977615 382.068268,213.987152 
	C366.761353,214.010452 351.454346,213.989075 335.720123,213.948349 
z"/>
<path fill="#FDFDFD" opacity="1.000000" stroke="none" 
	d="
M32.519810,198.468689 
	C34.936508,197.463608 37.056923,196.126541 39.193527,196.100159 
	C54.171131,195.915146 69.152145,195.973190 84.131905,196.013657 
	C89.871719,196.029160 93.839569,199.906464 93.696190,205.172302 
	C93.557350,210.271103 89.711349,213.957962 84.217720,213.980270 
	C69.570976,214.039749 54.923134,213.922302 40.277302,214.052383 
	C36.262962,214.088043 33.019161,213.017975 31.090313,209.419159 
	C29.092419,205.691513 29.554899,202.057053 32.519810,198.468689 
z"/>
<path fill="#F7F7F7" opacity="1.000000" stroke="none" 
	d="
M96.568481,308.678131 
	C97.494583,306.895020 98.044106,305.230377 99.140671,304.093353 
	C104.341270,298.701050 109.585747,293.341461 115.022530,288.189697 
	C119.068413,284.355896 124.364334,284.452698 127.983749,288.020386 
	C131.567627,291.553040 131.879501,296.965088 128.168335,300.944977 
	C122.835045,306.664429 117.270317,312.184662 111.560196,317.529053 
	C108.719772,320.187531 105.173195,320.950195 101.445206,318.931580 
	C97.479462,316.784180 95.832985,313.488770 96.568481,308.678131 
z"/>
<path fill="#F8F8F8" opacity="1.000000" stroke="none" 
	d="
M325.792908,310.158203 
	C325.422119,315.129730 323.206421,318.432831 318.696625,319.690460 
	C314.509308,320.858124 311.425781,318.710876 308.620789,315.820648 
	C304.100800,311.163300 299.410065,306.671906 294.873230,302.030518 
	C290.272308,297.323578 290.011078,292.063110 294.042664,288.027740 
	C297.845642,284.221100 303.212189,284.475800 307.758331,288.881073 
	C312.658447,293.629303 317.546143,298.404236 322.171692,303.414520 
	C323.778076,305.154510 324.584808,307.632751 325.792908,310.158203 
z"/>
<path fill="#F8F9F9" opacity="1.000000" stroke="none" 
	d="
M112.662964,119.385719 
	C107.885521,114.513145 103.230438,110.009949 98.844719,105.258141 
	C95.238686,101.351089 95.413727,96.276016 98.892921,92.752602 
	C102.331421,89.270393 107.774803,88.816002 111.509567,92.300423 
	C117.222725,97.630669 122.725212,103.206703 128.047806,108.928917 
	C131.935791,113.108818 131.706787,118.169151 127.999924,121.809586 
	C124.355995,125.388191 119.488144,125.308830 115.102547,121.590836 
	C114.356216,120.958130 113.634789,120.296059 112.662964,119.385719 
z"/>
<path fill="#F9F9FA" opacity="1.000000" stroke="none" 
	d="
M310.749390,117.755890 
	C309.078552,119.414032 307.717773,120.886856 306.229614,122.217178 
	C302.669586,125.399666 297.039368,125.059090 293.682953,121.527817 
	C290.530334,118.210953 290.257294,112.622627 293.356995,109.411171 
	C298.792725,103.779472 304.292816,98.202736 309.942047,92.786613 
	C313.914886,88.977684 319.265289,89.051155 322.951477,92.598152 
	C326.677795,96.183769 326.816772,101.286186 322.955322,105.463989 
	C319.118805,109.614784 314.997803,113.502632 310.749390,117.755890 
z"/>
<path fill="#F5F5F6" opacity="1.000000" stroke="none" 
	d="
M205.358429,387.208527 
	C199.998871,388.224548 196.485657,386.347870 195.242111,382.124512 
	C194.206665,378.607910 196.316818,374.761169 200.634033,373.352142 
	C205.810562,371.662689 211.076385,370.075775 216.425247,369.140778 
	C220.528946,368.423401 223.369568,370.904846 224.528366,374.893890 
	C225.542725,378.385590 222.980545,382.837372 219.262390,383.865204 
	C214.801971,385.098206 210.259537,386.034424 205.358429,387.208527 
z"/>
<path fill="#FAFAFB" opacity="1.000000" stroke="none" 
	d="
M166.380127,332.424927 
	C168.440140,331.994537 170.389511,331.994537 172.899384,331.994537 
	C171.573227,335.303986 170.500931,337.979950 169.139862,340.879211 
	C168.240509,340.256958 167.629944,339.411438 166.993805,338.108063 
	C166.917465,337.482025 166.840988,337.326477 166.738800,337.183563 
	C166.582367,335.740814 166.425934,334.298065 166.380127,332.424927 
z"/>
<path fill="#FAFAFB" opacity="1.000000" stroke="none" 
	d="
M166.368927,321.403046 
	C169.586761,323.138397 172.695908,325.282013 175.805054,327.425629 
	C175.558517,327.862396 175.311981,328.299164 175.065445,328.735931 
	C173.059509,328.705933 170.017334,330.919373 170.557800,325.316956 
	C169.305634,325.562195 168.228561,325.773102 166.820374,325.994781 
	C166.412933,324.607452 166.336578,323.209351 166.368927,321.403046 
z"/>
<path fill="#FAFAFB" opacity="1.000000" stroke="none" 
	d="
M191.511383,311.065674 
	C189.753464,307.136993 194.480957,309.978577 194.709274,307.832306 
	C195.465775,308.202606 196.222275,308.572937 196.990875,309.273071 
	C195.299820,310.091827 193.596680,310.580780 191.511383,311.065674 
z"/>
<path fill="#FAFAFB" opacity="1.000000" stroke="none" 
	d="
M183.445267,313.182831 
	C183.594742,309.941345 185.035721,308.912628 187.926514,311.545044 
	C186.605423,312.320312 185.211334,312.750610 183.445267,313.182831 
z"/>
<path fill="#FAFAFB" opacity="1.000000" stroke="none" 
	d="
M252.117386,341.634277 
	C251.780045,341.033417 251.559418,340.066803 251.672852,339.050110 
	C252.082642,339.756165 252.158371,340.512360 252.117386,341.634277 
z"/>
<path fill="#F8F8F9" opacity="1.000000" stroke="none" 
	d="
M276.990173,130.477631 
	C276.414124,130.344650 275.725494,129.940674 275.049408,129.186676 
	C275.667175,129.293304 276.272369,129.749969 276.990173,130.477631 
z"/>
<path fill="#F8F8F9" opacity="1.000000" stroke="none" 
	d="
M284.454285,137.774323 
	C284.457458,137.920624 284.086426,137.594299 284.023560,137.486618 
	C284.186584,137.339340 284.350067,137.422379 284.454285,137.774323 
z"/>
<path fill="#FAFAFB" opacity="1.000000" stroke="none" 
	d="
M284.132385,267.603394 
	C284.065460,267.450073 284.204590,267.283813 284.508789,267.051270 
	C284.649963,267.227112 284.538147,267.428925 284.132385,267.603394 
z"/>
<path fill="#FAFAFB" opacity="1.000000" stroke="none" 
	d="
M166.628906,337.318756 
	C166.840988,337.326477 166.917465,337.482025 166.996155,337.777832 
	C166.776947,337.842957 166.608597,337.692444 166.628906,337.318756 
z"/>
<path fill="#FAFAFB" opacity="1.000000" stroke="none" 
	d="
M248.274506,350.841095 
	C248.155487,350.520416 248.362656,350.309875 248.851929,350.096741 
	C248.887253,350.311890 248.709473,350.597626 248.274506,350.841095 
z"/>
<path fill="#FAFAFB" opacity="1.000000" stroke="none" 
	d="
M176.881348,324.182983 
	C176.464218,322.814514 176.152679,321.769775 175.841125,320.725037 
	C176.321136,320.608826 176.801147,320.492584 177.281158,320.376373 
	C178.061142,322.280304 178.841125,324.184235 179.621124,326.088165 
	C179.407761,326.313873 179.194412,326.539581 178.981049,326.765289 
	C178.316345,326.012421 177.651627,325.259552 176.881348,324.182983 
z"/>
<path fill="#F8F8F9" opacity="1.000000" stroke="none" 
	d="
M277.954742,135.601776 
	C277.714539,135.207962 277.716309,134.816223 277.746429,134.426666 
	C277.747284,134.415680 278.050995,134.428116 278.213501,134.429626 
	C278.209229,134.821121 278.204956,135.212631 277.954742,135.601776 
z"/>
<path fill="#FAFAFB" opacity="1.000000" stroke="none" 
	d="
M178.601868,331.045471 
	C178.208054,331.285645 177.816330,331.283936 177.426804,331.253815 
	C177.415894,331.252960 177.428375,330.949310 177.429947,330.786865 
	C177.821396,330.791077 178.212830,330.795319 178.601868,331.045471 
z"/>
</svg>